<?xml version="1.0" encoding="UTF-8"?>
<!--Generator: Apple Native CoreSVG 149-->
<!DOCTYPE svg
PUBLIC "-//W3C//DTD SVG 1.1//EN"
       "http://www.w3.org/Graphics/SVG/1.1/DTD/svg11.dtd">
<svg version="1.1" xmlns="http://www.w3.org/2000/svg" xmlns:xlink="http://www.w3.org/1999/xlink" width="3300" height="2200">
 <!--glyph: "uni1001D3.medium", point size: 100.000000, font version: "Version 16.0d18e1", template writer version: "8"-->
 <g id="Notes">
  <rect height="2200" id="artboard" style="fill:white;opacity:1" width="3300" x="0" y="0"/>
  <line id="" style="fill:none;stroke:black;opacity:1;stroke-width:0.5;" x1="263" x2="3036" y1="292" y2="292"/>
  <text style="stroke:none;fill:black;font-family:-apple-system,&quot;SF Pro Display&quot;,&quot;SF Pro Text&quot;,Helvetica,sans-serif;font-weight:bold;" transform="matrix(1 0 0 1 263 322)">Weight/Scale Variations</text>
  <text style="stroke:none;fill:black;font-family:-apple-system,&quot;SF Pro Display&quot;,&quot;SF Pro Text&quot;,Helvetica,sans-serif;text-anchor:middle;" transform="matrix(1 0 0 1 559.711 322)">Ultralight</text>
  <text style="stroke:none;fill:black;font-family:-apple-system,&quot;SF Pro Display&quot;,&quot;SF Pro Text&quot;,Helvetica,sans-serif;text-anchor:middle;" transform="matrix(1 0 0 1 856.422 322)">Thin</text>
  <text style="stroke:none;fill:black;font-family:-apple-system,&quot;SF Pro Display&quot;,&quot;SF Pro Text&quot;,Helvetica,sans-serif;text-anchor:middle;" transform="matrix(1 0 0 1 1153.13 322)">Light</text>
  <text style="stroke:none;fill:black;font-family:-apple-system,&quot;SF Pro Display&quot;,&quot;SF Pro Text&quot;,Helvetica,sans-serif;text-anchor:middle;" transform="matrix(1 0 0 1 1449.84 322)">Regular</text>
  <text style="stroke:none;fill:black;font-family:-apple-system,&quot;SF Pro Display&quot;,&quot;SF Pro Text&quot;,Helvetica,sans-serif;text-anchor:middle;" transform="matrix(1 0 0 1 1746.56 322)">Medium</text>
  <text style="stroke:none;fill:black;font-family:-apple-system,&quot;SF Pro Display&quot;,&quot;SF Pro Text&quot;,Helvetica,sans-serif;text-anchor:middle;" transform="matrix(1 0 0 1 2043.27 322)">Semibold</text>
  <text style="stroke:none;fill:black;font-family:-apple-system,&quot;SF Pro Display&quot;,&quot;SF Pro Text&quot;,Helvetica,sans-serif;text-anchor:middle;" transform="matrix(1 0 0 1 2339.98 322)">Bold</text>
  <text style="stroke:none;fill:black;font-family:-apple-system,&quot;SF Pro Display&quot;,&quot;SF Pro Text&quot;,Helvetica,sans-serif;text-anchor:middle;" transform="matrix(1 0 0 1 2636.69 322)">Heavy</text>
  <text style="stroke:none;fill:black;font-family:-apple-system,&quot;SF Pro Display&quot;,&quot;SF Pro Text&quot;,Helvetica,sans-serif;text-anchor:middle;" transform="matrix(1 0 0 1 2933.4 322)">Black</text>
  <line id="" style="fill:none;stroke:black;opacity:1;stroke-width:0.5;" x1="263" x2="3036" y1="1903" y2="1903"/>
  <g id="" transform="matrix(1 0 0 1 263 1933)">
   <path d="M9.24805 0.830078C13.5547 0.830078 17.1387-2.74414 17.1387-7.05078C17.1387-11.3574 13.5449-14.9316 9.23828-14.9316C4.94141-14.9316 1.36719-11.3574 1.36719-7.05078C1.36719-2.74414 4.95117 0.830078 9.24805 0.830078ZM9.24805-0.654297C5.70312-0.654297 2.87109-3.49609 2.87109-7.05078C2.87109-10.6055 5.69336-13.4473 9.23828-13.4473C12.793-13.4473 15.6348-10.6055 15.6445-7.05078C15.6543-3.49609 12.8027-0.654297 9.24805-0.654297ZM6.39648-6.31836L8.50586-6.31836L8.50586-4.19922C8.50586-3.75977 8.79883-3.45703 9.22852-3.45703C9.67773-3.45703 9.9707-3.75977 9.9707-4.19922L9.9707-6.31836L12.0996-6.31836C12.5391-6.31836 12.8418-6.61133 12.8418-7.04102C12.8418-7.48047 12.5391-7.7832 12.0996-7.7832L9.9707-7.7832L9.9707-9.89258C9.9707-10.3418 9.67773-10.6445 9.22852-10.6445C8.79883-10.6445 8.50586-10.3418 8.50586-9.89258L8.50586-7.7832L6.39648-7.7832C5.94727-7.7832 5.64453-7.48047 5.64453-7.04102C5.64453-6.61133 5.94727-6.31836 6.39648-6.31836Z"/>
  </g>
  <g id="" transform="matrix(1 0 0 1 281.506 1933)">
   <path d="M11.709 2.91016C17.1582 2.91016 21.6699-1.61133 21.6699-7.05078C21.6699-12.5 17.1484-17.0117 11.6992-17.0117C6.25977-17.0117 1.74805-12.5 1.74805-7.05078C1.74805-1.61133 6.26953 2.91016 11.709 2.91016ZM11.709 1.25C7.09961 1.25 3.41797-2.44141 3.41797-7.05078C3.41797-11.6602 7.08984-15.3516 11.6992-15.3516C16.3086-15.3516 20-11.6602 20.0098-7.05078C20.0195-2.44141 16.3184 1.25 11.709 1.25ZM7.98828-6.23047L10.8789-6.23047L10.8789-3.32031C10.8789-2.83203 11.2109-2.5 11.6895-2.5C12.1777-2.5 12.5195-2.83203 12.5195-3.32031L12.5195-6.23047L15.4297-6.23047C15.918-6.23047 16.25-6.5625 16.25-7.04102C16.25-7.5293 15.918-7.87109 15.4297-7.87109L12.5195-7.87109L12.5195-10.7617C12.5195-11.2695 12.1777-11.6016 11.6895-11.6016C11.2109-11.6016 10.8789-11.2598 10.8789-10.7617L10.8789-7.87109L7.98828-7.87109C7.48047-7.87109 7.14844-7.5293 7.14844-7.04102C7.14844-6.5625 7.49023-6.23047 7.98828-6.23047Z"/>
  </g>
  <g id="" transform="matrix(1 0 0 1 304.924 1933)">
   <path d="M14.9707 5.66406C21.9336 5.66406 27.6953-0.0976562 27.6953-7.05078C27.6953-14.0137 21.9238-19.7754 14.9609-19.7754C8.00781-19.7754 2.25586-14.0137 2.25586-7.05078C2.25586-0.0976562 8.01758 5.66406 14.9707 5.66406ZM14.9707 3.84766C8.93555 3.84766 4.08203-1.01562 4.08203-7.05078C4.08203-13.0957 8.92578-17.9492 14.9609-17.9492C21.0059-17.9492 25.8594-13.0957 25.8691-7.05078C25.8789-1.01562 21.0156 3.84766 14.9707 3.84766ZM10.0586-6.14258L14.0625-6.14258L14.0625-2.12891C14.0625-1.5918 14.4336-1.2207 14.9512-1.2207C15.4883-1.2207 15.8594-1.5918 15.8594-2.12891L15.8594-6.14258L19.8828-6.14258C20.4102-6.14258 20.791-6.51367 20.791-7.03125C20.791-7.56836 20.4199-7.94922 19.8828-7.94922L15.8594-7.94922L15.8594-11.9531C15.8594-12.5098 15.4883-12.8809 14.9512-12.8809C14.4336-12.8809 14.0625-12.5 14.0625-11.9531L14.0625-7.94922L10.0586-7.94922C9.50195-7.94922 9.13086-7.56836 9.13086-7.03125C9.13086-6.51367 9.51172-6.14258 10.0586-6.14258Z"/>
  </g>
  <text style="stroke:none;fill:black;font-family:-apple-system,&quot;SF Pro Display&quot;,&quot;SF Pro Text&quot;,Helvetica,sans-serif;font-weight:bold;" transform="matrix(1 0 0 1 263 1953)">Design Variations</text>
  <text style="stroke:none;fill:black;font-family:-apple-system,&quot;SF Pro Display&quot;,&quot;SF Pro Text&quot;,Helvetica,sans-serif;" transform="matrix(1 0 0 1 263 1971)">Symbols are supported in up to nine weights and three scales.</text>
  <text style="stroke:none;fill:black;font-family:-apple-system,&quot;SF Pro Display&quot;,&quot;SF Pro Text&quot;,Helvetica,sans-serif;" transform="matrix(1 0 0 1 263 1989)">For optimal layout with text and other symbols, vertically align</text>
  <text style="stroke:none;fill:black;font-family:-apple-system,&quot;SF Pro Display&quot;,&quot;SF Pro Text&quot;,Helvetica,sans-serif;" transform="matrix(1 0 0 1 263 2007)">symbols with the adjacent text.</text>
  <line id="" style="fill:none;stroke:#00AEEF;stroke-width:0.5;opacity:1.0;" x1="776" x2="776" y1="1919" y2="1933"/>
  <g id="" transform="matrix(1 0 0 1 776 1933)">
   <path d="M3.31055 0.126953C3.82812 0.126953 4.08203-0.0683594 4.26758-0.605469L5.52734-4.0625L11.2891-4.0625L12.5488-0.605469C12.7344-0.0683594 12.9883 0.126953 13.4961 0.126953C14.0137 0.126953 14.3457-0.185547 14.3457-0.673828C14.3457-0.839844 14.3164-0.986328 14.2383-1.20117L9.6582-13.3887C9.43359-13.9941 9.0332-14.2871 8.4082-14.2871C7.80273-14.2871 7.39258-13.9941 7.17773-13.3984L2.59766-1.19141C2.51953-0.976562 2.49023-0.830078 2.49023-0.664062C2.49023-0.175781 2.80273 0.126953 3.31055 0.126953ZM6.00586-5.53711L8.37891-12.1094L8.42773-12.1094L10.8008-5.53711Z"/>
  </g>
  <line id="" style="fill:none;stroke:#00AEEF;stroke-width:0.5;opacity:1.0;" x1="792.836" x2="792.836" y1="1919" y2="1933"/>
  <text style="stroke:none;fill:black;font-family:-apple-system,&quot;SF Pro Display&quot;,&quot;SF Pro Text&quot;,Helvetica,sans-serif;font-weight:bold;" transform="matrix(1 0 0 1 776 1953)">Margins</text>
  <text style="stroke:none;fill:black;font-family:-apple-system,&quot;SF Pro Display&quot;,&quot;SF Pro Text&quot;,Helvetica,sans-serif;" transform="matrix(1 0 0 1 776 1971)">Leading and trailing margins on the left and right side of each symbol</text>
  <text style="stroke:none;fill:black;font-family:-apple-system,&quot;SF Pro Display&quot;,&quot;SF Pro Text&quot;,Helvetica,sans-serif;" transform="matrix(1 0 0 1 776 1989)">can be adjusted by modifying the x-location of the margin guidelines.</text>
  <text style="stroke:none;fill:black;font-family:-apple-system,&quot;SF Pro Display&quot;,&quot;SF Pro Text&quot;,Helvetica,sans-serif;" transform="matrix(1 0 0 1 776 2007)">Modifications are automatically applied proportionally to all</text>
  <text style="stroke:none;fill:black;font-family:-apple-system,&quot;SF Pro Display&quot;,&quot;SF Pro Text&quot;,Helvetica,sans-serif;" transform="matrix(1 0 0 1 776 2025)">scales and weights.</text>
  <g id="" transform="matrix(1 0 0 1 1289 1933)">
   <path d="M2.8418 1.86523L4.54102 3.57422C5.40039 4.44336 6.38672 4.38477 7.31445 3.35938L17.4902-7.85156C17.7539-7.76367 18.0273-7.7832 18.3398-7.8418L19.4043-8.03711L20.0684-7.36328L20.0293-6.80664C19.9902-6.30859 20.1172-5.92773 20.6055-5.44922L21.3672-4.70703C21.8457-4.22852 22.4609-4.19922 22.9297-4.66797L25.8398-7.58789C26.3086-8.05664 26.2891-8.65234 25.8105-9.13086L25.0391-9.89258C24.5605-10.3711 24.1895-10.5273 23.7109-10.4883L23.1348-10.4395L22.4902-11.0742L22.7344-12.1973C22.8613-12.7637 22.7051-13.2031 22.1191-13.7891L19.9219-15.9766C16.582-19.2969 12.1484-19.2188 9.25781-16.3281C8.83789-15.918 8.80859-15.3418 9.04297-14.9512C9.27734-14.5898 9.73633-14.3555 10.3809-14.5215C11.8457-14.8633 13.3691-14.9219 14.7949-13.9844L14.209-12.5293C14.0137-12.0508 13.9844-11.6504 14.1113-11.2891L3.04688-0.898438C2.06055 0.0195312 1.98242 0.996094 2.8418 1.86523ZM10.752-15.957C13.1836-17.7344 16.4746-17.4316 18.7012-15.2051L21.1328-12.793C21.3672-12.5586 21.4062-12.373 21.3379-12.0312L21.0156-10.5469L22.5195-9.0625L23.5059-9.12109C23.7598-9.13086 23.8379-9.11133 24.0332-8.91602L24.6094-8.33984L22.168-5.89844L21.5918-6.47461C21.3965-6.66992 21.3672-6.74805 21.377-7.01172L21.4453-7.98828L19.9512-9.47266L18.4277-9.21875C18.1055-9.15039 17.959-9.17969 17.7148-9.41406L15.7129-11.416C15.459-11.6504 15.4297-11.8164 15.5859-12.1875L16.4648-14.2773C14.9023-15.7324 12.8711-16.3574 10.8398-15.7617C10.6836-15.7227 10.625-15.8496 10.752-15.957ZM5.27344 2.30469L4.10156 1.14258C3.63281 0.683594 3.74023 0.341797 4.14062-0.0195312L14.9512-10.1953L16.416-8.71094L6.42578 2.27539C6.07422 2.67578 5.74219 2.77344 5.27344 2.30469Z"/>
  </g>
  <text style="stroke:none;fill:black;font-family:-apple-system,&quot;SF Pro Display&quot;,&quot;SF Pro Text&quot;,Helvetica,sans-serif;font-weight:bold;" transform="matrix(1 0 0 1 1289 1953)">Exporting</text>
  <text style="stroke:none;fill:black;font-family:-apple-system,&quot;SF Pro Display&quot;,&quot;SF Pro Text&quot;,Helvetica,sans-serif;" transform="matrix(1 0 0 1 1289 1971)">Symbols should be outlined when exporting to ensure the</text>
  <text style="stroke:none;fill:black;font-family:-apple-system,&quot;SF Pro Display&quot;,&quot;SF Pro Text&quot;,Helvetica,sans-serif;" transform="matrix(1 0 0 1 1289 1989)">design is preserved when submitting to Xcode.</text>
  <text id="template-version" style="stroke:none;fill:black;font-family:-apple-system,&quot;SF Pro Display&quot;,&quot;SF Pro Text&quot;,Helvetica,sans-serif;text-anchor:end;" transform="matrix(1 0 0 1 3036 1933)">Template v.2.0</text>
  <text style="stroke:none;fill:black;font-family:-apple-system,&quot;SF Pro Display&quot;,&quot;SF Pro Text&quot;,Helvetica,sans-serif;text-anchor:end;" transform="matrix(1 0 0 1 3036 1951)">Requires Xcode 12 or greater</text>
  <text style="stroke:none;fill:black;font-family:-apple-system,&quot;SF Pro Display&quot;,&quot;SF Pro Text&quot;,Helvetica,sans-serif;text-anchor:end;" transform="matrix(1 0 0 1 3036 1969)">Generated from cloud.bolt.fill</text>
  <text style="stroke:none;fill:black;font-family:-apple-system,&quot;SF Pro Display&quot;,&quot;SF Pro Text&quot;,Helvetica,sans-serif;text-anchor:end;" transform="matrix(1 0 0 1 3036 1987)">Typeset at 100 points</text>
  <text style="stroke:none;fill:black;font-family:-apple-system,&quot;SF Pro Display&quot;,&quot;SF Pro Text&quot;,Helvetica,sans-serif;" transform="matrix(1 0 0 1 263 726)">Small</text>
  <text style="stroke:none;fill:black;font-family:-apple-system,&quot;SF Pro Display&quot;,&quot;SF Pro Text&quot;,Helvetica,sans-serif;" transform="matrix(1 0 0 1 263 1156)">Medium</text>
  <text style="stroke:none;fill:black;font-family:-apple-system,&quot;SF Pro Display&quot;,&quot;SF Pro Text&quot;,Helvetica,sans-serif;" transform="matrix(1 0 0 1 263 1586)">Large</text>
 </g>
 <g id="Guides">
  <g id="H-reference" style="fill:#27AAE1;stroke:none;" transform="matrix(1 0 0 1 339 696)">
   <path d="M0.976562 0L3.66211 0L12.9883-24.4629L45.752-24.4629L55.127 0L57.7637 0L30.6152-70.459L28.125-70.459ZM29.3457-67.1387L29.4434-67.1387L44.873-26.709L13.8672-26.709Z"/>
  </g>
  <line id="Baseline-S" style="fill:none;stroke:#27AAE1;opacity:1;stroke-width:0.5;" x1="263" x2="3036" y1="696" y2="696"/>
  <line id="Capline-S" style="fill:none;stroke:#27AAE1;opacity:1;stroke-width:0.5;" x1="263" x2="3036" y1="625.541" y2="625.541"/>
  <g id="H-reference" style="fill:#27AAE1;stroke:none;" transform="matrix(1 0 0 1 339 1126)">
   <path d="M0.976562 0L3.66211 0L12.9883-24.4629L45.752-24.4629L55.127 0L57.7637 0L30.6152-70.459L28.125-70.459ZM29.3457-67.1387L29.4434-67.1387L44.873-26.709L13.8672-26.709Z"/>
  </g>
  <line id="Baseline-M" style="fill:none;stroke:#27AAE1;opacity:1;stroke-width:0.5;" x1="263" x2="3036" y1="1126" y2="1126"/>
  <line id="Capline-M" style="fill:none;stroke:#27AAE1;opacity:1;stroke-width:0.5;" x1="263" x2="3036" y1="1055.54" y2="1055.54"/>
  <g id="H-reference" style="fill:#27AAE1;stroke:none;" transform="matrix(1 0 0 1 339 1556)">
   <path d="M0.976562 0L3.66211 0L12.9883-24.4629L45.752-24.4629L55.127 0L57.7637 0L30.6152-70.459L28.125-70.459ZM29.3457-67.1387L29.4434-67.1387L44.873-26.709L13.8672-26.709Z"/>
  </g>
  <line id="Baseline-L" style="fill:none;stroke:#27AAE1;opacity:1;stroke-width:0.5;" x1="263" x2="3036" y1="1556" y2="1556"/>
  <line id="Capline-L" style="fill:none;stroke:#27AAE1;opacity:1;stroke-width:0.5;" x1="263" x2="3036" y1="1485.54" y2="1485.54"/>
  <line id="left-margin" style="fill:none;stroke:#00AEEF;stroke-width:0.5;opacity:1.0;" x1="1385.86" x2="1385.86" y1="1030.79" y2="1150.12"/>
  <line id="right-margin" style="fill:none;stroke:#00AEEF;stroke-width:0.5;opacity:1.0;" x1="1513.83" x2="1513.83" y1="1030.79" y2="1150.12"/>
 </g>
 <g id="Symbols">
  <g id="Black-L" transform="matrix(1 0 0 1 2846.24 1556)">
   <path d="M44.4824-1.80664L123.926-1.80664C146.045-1.80664 163.037-18.5547 163.037-40.2832C163.037-62.3535 145.898-79.1016 123.486-78.9551C115.039-95.3125 100.195-104.15 80.9082-104.15C56.1523-104.15 35.8398-86.4746 32.5195-62.1094C20.0684-57.9102 11.2793-47.168 11.2793-33.0078C11.2793-14.8438 25.0488-1.80664 44.4824-1.80664ZM106.836 21.4844L91.9434 21.4844L97.168 11.5234C97.9004 10.1562 97.3145 9.08203 95.8984 9.08203L76.7578 9.08203C74.9512 9.08203 74.2676 9.7168 73.7305 11.084L64.4531 32.1777C63.8184 33.7402 64.3555 34.7656 66.0645 34.7656L78.2227 34.7656L69.9219 54.834C69.5312 55.7129 69.7754 56.3965 70.3125 56.6406C70.8984 56.8848 71.582 56.7383 72.3145 56.1035L107.764 24.7559C109.277 23.4863 108.74 21.4844 106.836 21.4844Z"/>
  </g>
  <g id="Heavy-L" transform="matrix(1 0 0 1 2550.68 1556)">
   <path d="M43.3594-2.88086L122.559-2.88086C144.141-2.88086 160.742-19.1895 160.742-40.2832C160.742-61.7188 143.848-77.9297 121.729-77.7832C113.379-94.1895 98.584-103.125 79.6875-103.125C55.3711-103.125 35.2539-85.2539 32.3242-61.1328C19.873-57.1289 11.2793-46.5332 11.2793-32.8125C11.2793-15.332 24.5117-2.88086 43.3594-2.88086ZM104.102 20.8496L89.8926 20.8496L95.4102 10.2539C96.1426 8.88672 95.6055 7.76367 94.1406 7.76367L76.8066 7.76367C75 7.76367 74.3652 8.39844 73.7793 9.76562L64.6484 30.5664C64.0137 32.0801 64.5996 33.1055 66.2598 33.1055L77.9785 33.1055L69.6289 53.418C69.2383 54.248 69.4336 54.9805 70.0195 55.2246C70.6055 55.4688 71.2891 55.3223 72.0215 54.6387L105.078 24.1211C106.543 22.7539 106.006 20.8496 104.102 20.8496Z"/>
  </g>
  <g id="Bold-L" transform="matrix(1 0 0 1 2255.29 1556)">
   <path d="M42.0898-4.10156L121.045-4.10156C141.992-4.10156 158.105-19.9219 158.105-40.332C158.105-60.9863 141.553-76.5625 119.775-76.416C111.523-92.8711 96.7773-101.953 78.3691-101.953C54.4922-101.953 34.668-83.9355 32.0801-60.0098C19.6777-56.25 11.2793-45.8008 11.2793-32.6172C11.2793-15.8691 23.9258-4.10156 42.0898-4.10156ZM101.123 20.166L87.5488 20.166L93.5059 8.78906C94.1895 7.42188 93.6523 6.29883 92.2363 6.29883L76.8555 6.29883C75.0488 6.29883 74.4141 6.93359 73.8281 8.30078L64.8926 28.7109C64.209 30.2734 64.8926 31.25 66.5527 31.25L77.7344 31.25L69.2871 51.8066C68.8965 52.6855 69.1406 53.3691 69.6777 53.6133C70.2637 53.8574 70.9961 53.7109 71.6797 52.9785L102.1 23.3398C103.516 21.9727 102.979 20.166 101.123 20.166Z"/>
  </g>
  <g id="Semibold-L" transform="matrix(1 0 0 1 1959.45 1556)">
   <path d="M41.2109-4.93164L120.02-4.93164C140.527-4.93164 156.348-20.4102 156.348-40.332C156.348-60.498 139.99-75.6836 118.457-75.4883C110.205-91.9922 95.5566-101.172 77.4414-101.172C53.8574-101.172 34.2285-83.0566 31.9336-59.2773C19.5312-55.6641 11.2793-45.3125 11.2793-32.4707C11.2793-16.2598 23.5352-4.93164 41.2109-4.93164ZM99.0234 19.6777L85.9375 19.6777L92.1387 7.76367C92.8711 6.39648 92.334 5.32227 90.918 5.32227L76.9043 5.32227C75.0977 5.32227 74.4629 5.95703 73.877 7.27539L65.0391 27.4414C64.3555 29.0039 65.0391 29.9805 66.6992 29.9805L77.5879 29.9805L69.043 50.6836C68.7012 51.5625 68.8965 52.2949 69.4824 52.5391C70.0684 52.7832 70.752 52.5879 71.4355 51.8555L100.049 22.8027C101.416 21.4355 100.879 19.6777 99.0234 19.6777Z"/>
  </g>
  <g id="Medium-L" transform="matrix(1 0 0 1 1663.43 1556)">
   <path d="M40.5762-5.56641L119.238-5.56641C139.404-5.56641 154.98-20.8008 154.98-40.332C154.98-60.1074 138.818-74.9512 117.432-74.8047C109.229-91.3086 94.5801-100.537 76.709-100.537C53.418-100.537 33.8867-82.373 31.8359-58.6914C19.4336-55.2246 11.2793-44.9219 11.2793-32.3242C11.2793-16.5527 23.1934-5.56641 40.5762-5.56641ZM97.4609 19.2871L84.7168 19.2871L91.1133 6.98242C91.8457 5.61523 91.3086 4.54102 89.8926 4.54102L76.9531 4.54102C75.1465 4.54102 74.4629 5.17578 73.9258 6.49414L65.1367 26.4648C64.502 28.0273 65.1855 29.0039 66.8457 29.0039L77.4902 29.0039L68.8965 49.8535C68.5059 50.7324 68.7012 51.4648 69.2871 51.709C69.873 51.9531 70.6055 51.7578 71.2891 51.0254L98.5352 22.4121C99.8047 21.0449 99.2676 19.2871 97.4609 19.2871Z"/>
  </g>
  <g id="Regular-L" transform="matrix(1 0 0 1 1367.62 1556)">
   <path d="M39.6973-6.39648L118.164-6.39648C137.939-6.39648 153.174-21.2891 153.174-40.332C153.174-59.6191 137.256-74.0723 116.113-73.877C107.959-90.4297 93.3594-99.7559 75.7812-99.7559C52.7832-99.7559 33.4473-81.4453 31.6895-57.959C19.2871-54.6387 11.2793-44.4336 11.2793-32.1777C11.2793-16.8945 22.8027-6.39648 39.6973-6.39648ZM95.3613 18.7988L83.1543 18.7988L89.7949 6.00586C90.5273 4.63867 89.9902 3.56445 88.5742 3.56445L76.9531 3.56445C75.1465 3.56445 74.5117 4.19922 73.9746 5.51758L65.332 25.1953C64.6484 26.8066 65.3809 27.7344 66.9922 27.7344L77.2949 27.7344L68.6523 48.7793C68.3105 49.6094 68.5059 50.3418 69.0918 50.5859C69.6777 50.8301 70.3613 50.6348 71.0449 49.9023L96.4844 21.9238C97.7539 20.5078 97.2168 18.7988 95.3613 18.7988Z"/>
  </g>
  <g id="Light-L" transform="matrix(1 0 0 1 1071.35 1556)">
   <path d="M38.9648-7.51953L117.822-7.51953C137.207-7.51953 152.295-22.0703 152.295-40.7227C152.295-59.5703 136.523-73.6816 115.723-73.5352C107.52-90.5273 93.1641-99.7559 75.4395-99.7559C52.832-99.7559 33.7891-81.4941 32.0312-57.959C19.4336-54.6875 11.2793-44.6777 11.2793-32.5684C11.2793-17.7734 22.5098-7.51953 38.9648-7.51953ZM92.2363 19.1406L80.9082 19.1406L88.2324 5.07812C88.9648 3.71094 88.3789 2.63672 86.9629 2.63672L78.1738 2.63672C76.3672 2.63672 75.6836 3.27148 75.1465 4.58984L66.4062 24.4629C65.7227 26.123 66.6016 27.002 68.1641 27.002L77.5879 27.002L68.8477 48.291C68.5059 49.1699 68.7012 49.9023 69.3359 50.1465C69.9219 50.3906 70.6543 50.1953 71.2891 49.4141L93.457 22.168C94.5801 20.752 94.043 19.1406 92.2363 19.1406Z"/>
  </g>
  <g id="Thin-L" transform="matrix(1 0 0 1 775.245 1556)">
   <path d="M37.9883-8.98438L117.334-8.98438C136.279-8.98438 151.074-23.1445 151.074-41.2598C151.074-59.4727 135.596-73.1934 115.234-73.0469C106.885-90.5762 92.9199-99.7559 74.9512-99.7559C52.832-99.7559 34.2285-81.4941 32.5195-57.959C19.5801-54.7363 11.2793-44.9219 11.2793-33.0566C11.2793-18.8965 22.168-8.98438 37.9883-8.98438ZM88.0371 19.5312L77.9297 19.5312L86.1328 3.90625C86.8652 2.53906 86.2793 1.41602 84.8633 1.41602L79.7363 1.41602C77.9297 1.41602 77.2949 2.05078 76.709 3.41797L67.8711 23.5352C67.1875 25.1953 68.1641 26.0742 69.7266 26.0742L78.0273 26.0742L69.1406 47.6562C68.75 48.584 68.9941 49.3164 69.6289 49.5605C70.2637 49.8047 71.0449 49.5605 71.6309 48.7305L89.4531 22.4609C90.4297 21.0449 89.7949 19.5312 88.0371 19.5312Z"/>
  </g>
  <g id="Ultralight-L" transform="matrix(1 0 0 1 478.852 1556)">
   <path d="M37.5-9.7168L117.09-9.7168C135.791-9.7168 150.439-23.7305 150.439-41.5039C150.439-59.4727 135.156-72.9492 114.99-72.8027C106.592-90.625 92.7734-99.7559 74.707-99.7559C52.8809-99.7559 34.4727-81.4941 32.8125-57.959C19.6777-54.7363 11.2793-45.0684 11.2793-33.3008C11.2793-19.4824 21.9727-9.7168 37.5-9.7168ZM85.8887 19.7754L76.416 19.7754L85.0586 3.27148C85.791 1.9043 85.2051 0.78125 83.7402 0.78125L80.5664 0.78125C78.7109 0.78125 78.0762 1.41602 77.4902 2.7832L68.6523 23.0469C67.9199 24.7559 68.9941 25.6348 70.5078 25.6348L78.2227 25.6348L69.3359 47.3145C68.8965 48.291 69.1406 49.0234 69.8242 49.2676C70.459 49.5117 71.2891 49.2676 71.8262 48.3398L87.4023 22.6074C88.3301 21.1914 87.6465 19.7754 85.8887 19.7754Z"/>
  </g>
  <g id="Black-M" transform="matrix(1 0 0 1 2864.53 1126)">
   <path d="M35.5469-8.44727L97.7051-8.44727C115.381-8.44727 129.004-21.875 129.004-39.3066C129.004-57.0801 115.43-70.6543 97.8516-70.5078C91.1621-83.3984 79.6875-90.0391 64.1602-90.0391C44.5801-90.0391 28.7109-76.5137 25.6836-57.373C15.8691-53.8574 8.74023-45.459 8.74023-33.9844C8.74023-19.2383 20.0195-8.44727 35.5469-8.44727ZM84.7168 9.76562L72.9004 9.76562L76.7578 2.29492C77.3438 1.2207 76.9043 0.390625 75.7812 0.390625L60.0586 0.390625C58.6426 0.390625 58.1543 0.878906 57.7148 1.9043L50.2441 18.8477C49.7559 20.0684 50.1953 20.8496 51.5137 20.8496L61.0352 20.8496L54.6875 36.2305C54.3945 36.9141 54.5898 37.5 55.0293 37.6953C55.4688 37.8418 56.0059 37.7441 56.5918 37.2559L85.498 12.3047C86.6699 11.3281 86.2305 9.76562 84.7168 9.76562Z"/>
  </g>
  <g id="Heavy-M" transform="matrix(1 0 0 1 2568.96 1126)">
   <path d="M34.5215-9.375L96.2891-9.375C113.477-9.375 126.709-22.3633 126.709-39.2578C126.709-56.3965 113.379-69.4336 96.0449-69.3359C89.4531-82.1289 77.9785-88.916 62.9395-88.916C43.75-88.916 27.9785-75.2441 25.3418-56.2988C15.625-53.0273 8.74023-44.6777 8.74023-33.6914C8.74023-19.5312 19.4824-9.375 34.5215-9.375ZM82.6172 8.98438L71.1914 8.98438L75.293 1.12305C75.8789 0.0488281 75.4395-0.830078 74.3164-0.830078L59.8145-0.830078C58.3984-0.830078 57.8613-0.341797 57.4707 0.732422L50.1953 17.2363C49.707 18.457 50.1465 19.2383 51.4648 19.2383L60.7422 19.2383L54.2969 34.8145C54.0039 35.498 54.1992 36.0352 54.6387 36.2305C55.0781 36.4258 55.6152 36.2793 56.2012 35.791L83.3496 11.5234C84.5215 10.498 84.082 8.98438 82.6172 8.98438Z"/>
  </g>
  <g id="Bold-M" transform="matrix(1 0 0 1 2273.55 1126)">
   <path d="M33.3984-10.3516L94.7266-10.3516C111.328-10.3516 124.121-22.9004 124.121-39.1602C124.121-55.6152 111.084-68.0664 93.9941-67.9688C87.5488-80.6641 76.0742-87.6465 61.5234-87.6465C42.7734-87.6465 27.2461-73.7793 25-55.127C15.3809-52.0508 8.74023-43.8477 8.74023-33.3496C8.74023-19.873 18.8965-10.3516 33.3984-10.3516ZM80.2246 8.10547L69.2871 8.10547L73.6328-0.244141C74.2188-1.26953 73.7793-2.14844 72.6562-2.14844L59.5215-2.14844C58.1055-2.14844 57.6172-1.66016 57.1777-0.585938L50.1465 15.4297C49.6094 16.6504 50.0977 17.4316 51.3672 17.4316L60.4004 17.4316L53.9062 33.2031C53.6133 33.8379 53.7598 34.4238 54.1992 34.6191C54.6387 34.8145 55.1758 34.668 55.7617 34.1309L81.0059 10.5957C82.0801 9.57031 81.6895 8.10547 80.2246 8.10547Z"/>
  </g>
  <g id="Semibold-M" transform="matrix(1 0 0 1 1977.71 1126)">
   <path d="M32.5684-11.0352L93.6523-11.0352C109.863-11.0352 122.363-23.291 122.363-39.0625C122.363-55.0781 109.521-67.1387 92.627-67.041C86.2305-79.6875 74.7559-86.7676 60.5957-86.7676C42.0898-86.7676 26.709-72.8027 24.7559-54.2969C15.1855-51.416 8.74023-43.2617 8.74023-33.1055C8.74023-20.1172 18.5059-11.0352 32.5684-11.0352ZM78.5645 7.51953L67.9688 7.51953L72.5098-1.17188C73.0469-2.19727 72.6074-3.07617 71.5332-3.07617L59.3262-3.07617C57.9102-3.07617 57.4219-2.53906 56.9824-1.51367L50.0488 14.209C49.5605 15.3809 50.0488 16.1621 51.3672 16.1621L60.1562 16.1621L53.6133 32.0801C53.3203 32.7637 53.4668 33.3008 53.9062 33.4961C54.3457 33.6914 54.8828 33.5449 55.4199 33.0078L79.3457 10.0098C80.4199 8.93555 80.0293 7.51953 78.5645 7.51953Z"/>
  </g>
  <g id="Medium-M" transform="matrix(1 0 0 1 1681.69 1126)">
   <path d="M31.9824-11.5723L92.8711-11.5723C108.74-11.5723 120.996-23.584 120.996-39.0137C120.996-54.6875 108.301-66.4551 91.5527-66.3086C85.2539-78.9551 73.7793-86.084 59.8633-86.084C41.6016-86.084 26.2695-72.0215 24.5605-53.6621C15.0391-50.8789 8.74023-42.8223 8.74023-32.9102C8.74023-20.3125 18.2129-11.5723 31.9824-11.5723ZM77.3438 7.08008L66.9922 7.08008L71.6309-1.85547C72.2168-2.92969 71.7773-3.75977 70.7031-3.75977L59.1797-3.75977C57.7637-3.75977 57.2754-3.27148 56.8359-2.24609L50.0488 13.2324C49.5117 14.4531 50.0488 15.1855 51.3184 15.1855L59.9609 15.1855L53.3691 31.25C53.0762 31.8848 53.2227 32.4707 53.7109 32.666C54.1504 32.8125 54.6875 32.7148 55.2246 32.1777L78.125 9.52148C79.1992 8.44727 78.7598 7.08008 77.3438 7.08008Z"/>
  </g>
  <g id="Regular-M" transform="matrix(1 0 0 1 1385.86 1126)">
   <path d="M31.2012-12.2559L91.7969-12.2559C107.324-12.2559 119.238-23.9746 119.238-38.9648C119.238-54.1504 106.738-65.5273 90.1855-65.3809C83.9355-77.9785 72.4609-85.2539 58.9355-85.2539C40.918-85.2539 25.7324-71.0449 24.3652-52.832C14.8926-50.2441 8.74023-42.2852 8.74023-32.666C8.74023-20.5566 17.8223-12.2559 31.2012-12.2559ZM75.7324 6.49414L65.6738 6.49414L70.5078-2.7832C71.0938-3.80859 70.6543-4.63867 69.5801-4.63867L58.9844-4.63867C57.5684-4.63867 57.0801-4.15039 56.6406-3.125L50 12.0117C49.4629 13.2324 50 13.9648 51.2695 13.9648L59.7656 13.9648L53.0762 30.127C52.832 30.8105 52.9297 31.3477 53.418 31.543C53.8574 31.7383 54.3945 31.5918 54.9316 31.0547L76.5137 8.93555C77.5391 7.86133 77.1484 6.49414 75.7324 6.49414Z"/>
  </g>
  <g id="Light-M" transform="matrix(1 0 0 1 1089.56 1126)">
   <path d="M30.5176-13.2812L91.4551-13.2812C106.641-13.2812 118.408-24.6582 118.408-39.3066C118.408-54.1016 106.152-65.1855 89.8438-65.0879C83.5449-78.0273 72.3145-85.2539 58.6426-85.2539C40.918-85.2539 26.0254-71.0449 24.6582-52.832C14.9902-50.293 8.74023-42.4316 8.74023-33.0078C8.74023-21.2891 17.5781-13.2812 30.5176-13.2812ZM72.9004 6.73828L63.6719 6.73828L69.0918-3.56445C69.6289-4.63867 69.1895-5.46875 68.1152-5.46875L60.0586-5.46875C58.6426-5.46875 58.1543-4.98047 57.7148-3.95508L50.9766 11.377C50.4395 12.5977 51.0742 13.3301 52.2949 13.3301L60.0098 13.3301L53.2715 29.6875C52.9785 30.3711 53.1738 30.957 53.6133 31.1523C54.1016 31.3477 54.6387 31.1523 55.127 30.5664L73.7793 9.13086C74.707 8.05664 74.2676 6.73828 72.9004 6.73828Z"/>
  </g>
  <g id="Thin-M" transform="matrix(1 0 0 1 793.385 1126)">
   <path d="M29.6387-14.5508L91.0156-14.5508C105.811-14.5508 117.334-25.6348 117.334-39.7949C117.334-54.0527 105.322-64.7461 89.4043-64.6484C82.959-78.125 72.0703-85.2539 58.2031-85.2539C40.9668-85.2539 26.4648-71.0938 25.0977-52.832C15.1367-50.3418 8.74023-42.6758 8.74023-33.4473C8.74023-22.3145 17.2363-14.5508 29.6387-14.5508ZM69.1406 7.12891L61.0352 7.12891L67.1875-4.63867C67.7734-5.71289 67.334-6.5918 66.2109-6.5918L61.4746-6.5918C60.0586-6.5918 59.5215-6.05469 59.1309-5.0293L52.2949 10.498C51.7578 11.8164 52.4902 12.5 53.7109 12.5L60.3516 12.5L53.5156 29.1504C53.2227 29.8828 53.418 30.4199 53.9062 30.6152C54.3945 30.8105 54.9805 30.6152 55.4688 29.9805L70.166 9.42383C70.9961 8.30078 70.5078 7.12891 69.1406 7.12891Z"/>
  </g>
  <g id="Ultralight-M" transform="matrix(1 0 0 1 496.967 1126)">
   <path d="M29.1992-15.2344L90.8203-15.2344C105.371-15.2344 116.748-26.123 116.748-40.0391C116.748-54.0039 104.883-64.5508 89.1602-64.4043C82.7148-78.125 71.9238-85.2539 57.959-85.2539C40.9668-85.2539 26.6602-71.0938 25.3418-52.832C15.2344-50.3418 8.74023-42.8223 8.74023-33.6426C8.74023-22.8516 17.0898-15.2344 29.1992-15.2344ZM67.2363 7.32422L59.668 7.32422L66.2109-5.22461C66.7969-6.25 66.3574-7.12891 65.2344-7.12891L62.207-7.12891C60.7422-7.12891 60.2539-6.64062 59.8145-5.56641L52.9785 10.0586C52.3926 11.377 53.2227 12.0605 54.3945 12.0605L60.5469 12.0605L53.6621 28.8574C53.3691 29.5898 53.5645 30.1758 54.0527 30.3223C54.541 30.5176 55.1758 30.3223 55.6152 29.6387L68.3594 9.57031C69.0918 8.44727 68.6035 7.32422 67.2363 7.32422Z"/>
  </g>
  <g id="Black-S" transform="matrix(1 0 0 1 2879.54 696)">
   <path d="M27.7832-14.3066L76.416-14.3066C90.2344-14.3066 100.879-24.8047 100.879-38.4277C100.879-52.2949 90.2832-62.8906 76.5137-62.793C71.2891-72.8516 62.3047-78.0762 50.1465-78.0762C34.8633-78.0762 22.4121-67.4805 20.0684-52.4902C12.4023-49.7559 6.83594-43.1641 6.83594-34.2285C6.83594-22.7051 15.625-14.3066 27.7832-14.3066ZM66.2598-0.0488281L56.9824-0.0488281L60.0586-5.9082C60.498-6.73828 60.1562-7.42188 59.2773-7.42188L47.0215-7.42188C45.8984-7.42188 45.5078-7.03125 45.166-6.20117L39.3555 7.03125C38.9648 7.95898 39.3066 8.59375 40.332 8.59375L47.8027 8.59375L42.8223 20.6543C42.5781 21.1914 42.7246 21.6309 43.0664 21.7773C43.4082 21.9238 43.8477 21.8262 44.2871 21.4355L66.8457 1.95312C67.7734 1.17188 67.4316-0.0488281 66.2598-0.0488281Z"/>
  </g>
  <g id="Heavy-S" transform="matrix(1 0 0 1 2583.66 696)">
   <path d="M27.0508-14.8926L75.3906-14.8926C88.8672-14.8926 99.2188-25.0977 99.2188-38.3301C99.2188-51.7578 88.7695-62.0117 75.1465-61.9141C70.0195-71.875 61.0352-77.1973 49.2676-77.1973C34.1797-77.1973 21.8262-66.5039 19.7754-51.6602C12.207-49.1211 6.83594-42.5781 6.83594-33.9355C6.83594-22.8516 15.2344-14.8926 27.0508-14.8926ZM64.9414-0.683594L55.9082-0.683594L59.082-6.73828C59.5215-7.56836 59.1797-8.25195 58.3008-8.25195L46.6797-8.25195C45.6055-8.25195 45.2148-7.86133 44.873-7.03125L39.209 5.85938C38.8184 6.78711 39.1602 7.42188 40.1855 7.42188L47.5098 7.42188L42.5293 19.5801C42.2852 20.1172 42.4316 20.5566 42.7734 20.7031C43.1152 20.8496 43.5059 20.752 43.9453 20.3613L65.5273 1.31836C66.4551 0.537109 66.1133-0.683594 64.9414-0.683594Z"/>
  </g>
  <g id="Bold-S" transform="matrix(1 0 0 1 2287.88 696)">
   <path d="M26.2695-15.5273L74.2188-15.5273C87.3047-15.5273 97.3633-25.4395 97.3633-38.2324C97.3633-51.1719 87.1094-60.9863 73.6328-60.8887C68.6035-70.8008 59.5703-76.2695 48.2422-76.2695C33.4473-76.2695 21.1914-65.3809 19.4824-50.7812C12.0117-48.3887 6.83594-41.8945 6.83594-33.6426C6.83594-23.0469 14.8438-15.5273 26.2695-15.5273ZM63.4766-1.36719L54.7363-1.36719L58.0078-7.66602C58.4473-8.49609 58.1055-9.13086 57.2266-9.13086L46.3379-9.13086C45.2637-9.13086 44.873-8.74023 44.5312-7.95898L39.0137 4.54102C38.623 5.51758 38.9648 6.10352 39.9902 6.10352L47.2168 6.10352L42.1387 18.4082C41.9434 18.9453 42.041 19.3848 42.3828 19.5312C42.7246 19.6777 43.1641 19.5801 43.6035 19.1895L64.0625 0.585938C64.9414-0.195312 64.5996-1.36719 63.4766-1.36719Z"/>
  </g>
  <g id="Semibold-S" transform="matrix(1 0 0 1 1991.83 696)">
   <path d="M25.7324-15.9668L73.4375-15.9668C86.2305-15.9668 96.0449-25.6348 96.0449-38.1348C96.0449-50.7812 85.9375-60.3027 72.6074-60.2051C67.627-70.0195 58.5938-75.5859 47.5586-75.5859C32.9102-75.5859 20.8008-64.5996 19.2871-50.1465C11.8652-47.8516 6.83594-41.4551 6.83594-33.4473C6.83594-23.1445 14.5508-15.9668 25.7324-15.9668ZM62.4512-1.85547L53.9062-1.85547L57.2266-8.30078C57.666-9.13086 57.3242-9.76562 56.4941-9.76562L46.0938-9.76562C45.0195-9.76562 44.6289-9.375 44.2871-8.59375L38.916 3.66211C38.5254 4.58984 38.8672 5.17578 39.8926 5.17578L47.0215 5.17578L41.8945 17.627C41.6992 18.1152 41.7969 18.5547 42.1387 18.7012C42.4805 18.8477 42.9199 18.75 43.3594 18.3594L63.0371 0.0976562C63.916-0.683594 63.623-1.85547 62.4512-1.85547Z"/>
  </g>
  <g id="Medium-S" transform="matrix(1 0 0 1 1695.6 696)">
   <path d="M25.293-16.3086L72.8516-16.3086C85.4492-16.3086 95.0684-25.8301 95.0684-38.0859C95.0684-50.4883 85.0586-59.8145 71.8262-59.7168C66.8945-69.4336 57.8613-75.0977 47.0215-75.0977C32.5195-75.0977 20.459-64.0625 19.0918-49.6582C11.7188-47.4609 6.83594-41.1133 6.83594-33.252C6.83594-23.2422 14.3555-16.3086 25.293-16.3086ZM61.7188-2.19727L53.2715-2.19727L56.6895-8.78906C57.1289-9.61914 56.7871-10.2539 55.9082-10.2539L45.8984-10.2539C44.8242-10.2539 44.4336-9.86328 44.0918-9.08203L38.8184 2.97852C38.4277 3.90625 38.7695 4.49219 39.7949 4.49219L46.875 4.49219L41.748 16.9922C41.5039 17.4805 41.6504 17.9199 41.9922 18.0664C42.334 18.2129 42.7246 18.1152 43.1641 17.7246L62.2559-0.244141C63.1348-1.07422 62.8418-2.19727 61.7188-2.19727Z"/>
  </g>
  <g id="Regular-S" transform="matrix(1 0 0 1 1399.53 696)">
   <path d="M24.7559-16.748L72.0703-16.748C84.375-16.748 93.7988-26.0254 93.7988-37.9883C93.7988-50.0977 83.9355-59.1309 70.8008-59.0332C65.9668-68.7012 56.8359-74.4141 46.3379-74.4141C32.0312-74.4141 20.0195-63.2812 18.8965-49.0234C11.5723-46.9727 6.83594-40.6738 6.83594-33.0566C6.83594-23.3398 14.0625-16.748 24.7559-16.748ZM60.6934-2.68555L52.4414-2.68555L55.9082-9.42383C56.3477-10.2539 56.0059-10.8887 55.1758-10.8887L45.6543-10.8887C44.5801-10.8887 44.1895-10.498 43.8477-9.7168L38.6719 2.09961C38.2812 3.02734 38.623 3.61328 39.6484 3.61328L46.6797 3.61328L41.5039 16.2109C41.3086 16.6992 41.4062 17.1387 41.748 17.2852C42.0898 17.4316 42.4805 17.334 42.9199 16.9434L61.2305-0.732422C62.1094-1.5625 61.8164-2.68555 60.6934-2.68555Z"/>
  </g>
  <g id="Light-S" transform="matrix(1 0 0 1 1103.18 696)">
   <path d="M24.1699-17.627L71.7773-17.627C83.7891-17.627 93.0664-26.709 93.0664-38.2812C93.0664-50.0488 83.3984-58.8379 70.5078-58.7402C65.5762-68.75 56.6895-74.4141 46.0449-74.4141C32.0312-74.4141 20.2637-63.2812 19.1895-49.0234C11.6699-47.0215 6.83594-40.8203 6.83594-33.3496C6.83594-24.0234 13.8672-17.627 24.1699-17.627ZM58.2031-2.44141L50.6836-2.44141L54.6875-10.1074C55.127-10.9375 54.7852-11.6211 53.9062-11.6211L46.6309-11.6211C45.5566-11.6211 45.166-11.2305 44.8242-10.4004L39.5508 1.51367C39.1602 2.49023 39.5996 3.07617 40.5762 3.07617L46.9238 3.07617L41.6504 15.8203C41.4551 16.3574 41.5527 16.7969 41.9434 16.9434C42.2852 17.0898 42.7246 16.9434 43.1152 16.5039L58.8379-0.537109C59.6191-1.41602 59.2773-2.44141 58.2031-2.44141Z"/>
  </g>
  <g id="Thin-S" transform="matrix(1 0 0 1 806.935 696)">
   <path d="M23.3887-18.7988L71.3867-18.7988C83.0566-18.7988 92.1387-27.5391 92.1387-38.7207C92.1387-50 82.666-58.4473 70.1172-58.3496C65.0879-68.7988 56.4941-74.4141 45.6543-74.4141C32.0801-74.4141 20.6055-63.3301 19.5801-49.0234C11.8164-47.0215 6.83594-41.0156 6.83594-33.7402C6.83594-24.9023 13.5742-18.7988 23.3887-18.7988ZM54.8828-2.09961L48.3398-2.09961L53.0273-11.084C53.4668-11.9141 53.125-12.5488 52.2461-12.5488L47.9004-12.5488C46.7773-12.5488 46.3867-12.1582 46.0449-11.377L40.7227 0.78125C40.2832 1.75781 40.8691 2.34375 41.7969 2.34375L47.2168 2.34375L41.8945 15.332C41.6504 15.8691 41.7969 16.3086 42.1875 16.4551C42.5293 16.6016 43.0176 16.4551 43.3594 15.9668L55.6641-0.292969C56.3477-1.17188 55.957-2.09961 54.8828-2.09961Z"/>
  </g>
  <g id="Ultralight-S" transform="matrix(1 0 0 1 510.492 696)">
   <path d="M22.998-19.3848L71.1914-19.3848C82.666-19.3848 91.6016-27.9785 91.6016-38.916C91.6016-49.9512 82.2754-58.252 69.9219-58.1543C64.8438-68.8477 56.3965-74.4141 45.459-74.4141C32.0801-74.4141 20.8008-63.3301 19.7754-49.0234C11.9141-47.0703 6.83594-41.1133 6.83594-33.9355C6.83594-25.3906 13.4277-19.3848 22.998-19.3848ZM53.1738-1.95312L47.1191-1.95312L52.1484-11.5723C52.5879-12.4023 52.2461-13.0859 51.3672-13.0859L48.5352-13.0859C47.4121-13.0859 47.0215-12.6953 46.6797-11.8652L41.3086 0.390625C40.8691 1.41602 41.5039 1.95312 42.4316 1.95312L47.4121 1.95312L41.9922 15.0391C41.748 15.625 41.8945 16.0645 42.2852 16.2109C42.6758 16.3574 43.1641 16.2109 43.5059 15.6738L54.0527-0.195312C54.6387-1.07422 54.248-1.95312 53.1738-1.95312Z"/>
  </g>
 </g>
</svg>
